<svg width="285" height="76" viewBox="0 0 285 76" fill="none" xmlns="http://www.w3.org/2000/svg">
<g clip-path="url(#clip0_2776_2151)">
<path d="M21.133 40.53C21.1605 40.5985 21.1948 40.6534 21.2223 40.722C23.1237 45.5294 20.1446 51.4478 13.9392 52.9497C6.52564 54.7396 -0.0573063 49.3835 0.141761 49.4658C0.141761 49.4658 0.0868452 49.4453 0.0662521 49.4041C0.0456589 49.3561 0.073118 49.2944 0.073118 49.3012C-0.00925455 49.5001 0.841929 41.058 7.3425 37.0736C12.786 33.7406 19.0875 35.8117 21.1468 40.5574C21.1742 40.626 21.1948 40.6877 21.2223 40.7563L21.1262 40.5299L21.133 40.53Z" fill="#C62030"/>
<path d="M27.83 43.2321C27.8986 43.2046 27.9535 43.1703 28.0222 43.1429C32.8204 41.2158 38.758 44.1579 40.2957 50.3437C42.1285 57.7434 36.8017 64.3476 36.8909 64.1488C36.8909 64.1488 36.8703 64.2105 36.8292 64.2242C36.788 64.2448 36.7193 64.2242 36.7193 64.2242C36.9253 64.3065 28.4752 63.4972 24.4527 57.0234C21.0891 51.6056 23.1279 45.2963 27.8643 43.2115C27.9329 43.1841 27.9947 43.1635 28.0633 43.136L27.8368 43.2321H27.83Z" fill="#C62030"/>
<path d="M30.6523 36.4222C30.6249 36.3536 30.5905 36.2919 30.5631 36.2233C28.6342 31.4296 31.5721 25.4906 37.7707 23.9613C45.1705 22.1302 51.6436 27.3834 51.6711 27.4246C51.6848 27.4726 51.6573 27.5343 51.6711 27.5274C51.7466 27.3354 50.9434 35.7775 44.4635 39.7894C39.0337 43.1498 32.7254 41.113 30.6386 36.381C30.6111 36.3124 30.5905 36.2507 30.5562 36.1821L30.6592 36.4153L30.6523 36.4222Z" fill="#C62030"/>
<path d="M23.7114 33.6516C23.7801 33.6242 23.8418 33.5967 23.9105 33.5693C28.6126 31.4228 30.5758 25.0929 27.1367 19.7231C23.0318 13.3041 14.5749 12.6046 14.774 12.68C14.7808 12.68 14.7191 12.6595 14.6779 12.68C14.6298 12.7006 14.6024 12.7692 14.6092 12.7623C14.6847 12.5635 9.44722 19.2431 11.3761 26.6154C12.9961 32.7875 18.975 35.6541 23.7457 33.6584C23.8144 33.631 23.8693 33.5967 23.9379 33.5693L23.7045 33.6653L23.7114 33.6516Z" fill="#C62030"/>
<path d="M21.1183 36.1752C21.1526 36.1135 21.1869 36.0518 21.2213 35.9832C23.4385 31.3198 20.8506 25.2163 14.755 23.3166C7.46505 21.0466 0.54575 25.9638 0.751681 25.8952C0.751681 25.8952 0.696766 25.9089 0.669309 25.9501C0.648716 25.9912 0.669309 26.0598 0.669309 26.0529C0.600665 25.854 0.909562 34.3305 7.14242 38.7195C12.3594 42.3954 18.7775 40.7358 21.1389 36.141C21.1732 36.0792 21.1938 36.0106 21.2281 35.9489L21.1183 36.1684L21.1183 36.1752Z" fill="#DE4858"/>
<path d="M23.529 43.1432C23.4604 43.1158 23.4054 43.0815 23.3368 43.0472C18.669 40.8321 12.5529 43.4175 10.6583 49.5074C8.38618 56.7837 13.3079 63.6896 13.2324 63.4907C13.2324 63.4838 13.253 63.5456 13.2942 63.573C13.3423 63.5867 13.404 63.573 13.404 63.573C13.1981 63.6416 21.6825 63.333 26.0757 57.1128C29.7619 51.9008 28.0938 45.4818 23.4947 43.1226C23.426 43.0884 23.3711 43.0609 23.3025 43.0335C23.3025 43.0335 23.529 43.1432 23.529 43.1432Z" fill="#DE4858"/>
<path d="M30.4456 40.8454C30.4799 40.7837 30.5005 40.722 30.5417 40.6534C32.9579 36.0929 39.4036 34.5087 44.5656 38.2531C50.7436 42.7245 50.9358 51.2078 50.874 51.002C50.874 50.9952 50.8946 51.0569 50.874 51.1049C50.8465 51.1461 50.7779 51.1666 50.7916 51.1666C50.9907 51.0981 44.0096 55.926 36.7608 53.5669C30.6858 51.5918 28.1803 45.454 30.4524 40.818C30.4868 40.7494 30.5142 40.6946 30.5554 40.6328L30.4387 40.8523L30.4456 40.8454Z" fill="#DE4858"/>
<path d="M28.2088 33.8231C28.1401 33.7957 28.0783 33.7682 28.0097 33.7339C23.4449 31.32 21.8592 24.8803 25.6072 19.7163C30.0827 13.5442 38.4298 13.3933 38.471 13.4139C38.5053 13.4345 38.5259 13.503 38.5259 13.4962C38.4573 13.2904 43.2898 20.2718 40.9216 27.5069C38.9447 33.5762 32.8079 36.0793 28.1607 33.8094C28.0921 33.7751 28.044 33.7408 27.9754 33.7065L28.2019 33.8162L28.2088 33.8231Z" fill="#DE4858"/>
<path d="M22.2163 38.1574V38.3083C22.0173 41.895 18.3997 44.7685 14.0408 43.9044C8.83078 42.8688 6.24291 37.5608 6.33901 37.6705C6.33901 37.6705 6.30469 37.6431 6.30469 37.6088C6.31155 37.5745 6.35274 37.5471 6.34587 37.5471C6.23604 37.6499 9.24951 32.5682 14.5214 31.951C18.942 31.4367 22.3124 34.5913 22.2232 38.1848C22.2232 38.2397 22.2232 38.2809 22.2163 38.3357C22.2163 38.3357 22.2163 38.1574 22.2163 38.1574Z" fill="#E16F6F"/>
<path d="M25.6738 41.9566H25.8248C29.4218 42.1555 32.2911 45.7696 31.4262 50.1244C30.3896 55.3295 25.0766 57.915 25.1864 57.819C25.1864 57.819 20.0793 54.9112 19.4615 49.6443C18.9467 45.2278 22.1043 41.8606 25.7013 41.9497C25.7562 41.9497 25.7974 41.9497 25.8523 41.9566C25.8523 41.9566 25.6738 41.9566 25.6738 41.9566Z" fill="#E16F6F"/>
<path d="M29.4769 38.4109V38.5618C29.4357 42.1553 32.8473 45.2688 37.2543 44.6927C42.5193 44.0138 45.3954 38.9732 45.3954 38.9321C45.3954 38.8978 45.3611 38.8635 45.3611 38.8704C45.4641 38.9732 42.8007 33.6995 37.5838 32.7325C33.2112 31.9233 29.6348 34.8379 29.4769 38.4314V38.5823C29.4769 38.5823 29.4769 38.4109 29.4769 38.4109Z" fill="#E16F6F"/>
<path d="M25.9282 34.7009H26.0792C29.6761 34.742 32.7857 31.3337 32.216 26.9309C31.5364 21.6708 26.4087 18.7219 26.5117 18.8316C26.5117 18.8316 26.4911 18.8042 26.4567 18.7974C26.4224 18.7974 26.3812 18.8316 26.3881 18.8248C26.4979 18.7219 21.2124 21.3828 20.2513 26.5948C19.4345 30.9633 22.3587 34.5363 25.9556 34.694H26.0998H25.9282V34.7009Z" fill="#E16F6F"/>
<path d="M28.1726 40.5987C28.1382 40.633 28.1039 40.6605 28.0765 40.6948C25.8455 43.0196 26.1819 47.1412 29.415 49.4592C33.2728 52.2298 38.2357 50.6868 38.2632 50.6593C38.2838 50.6387 38.2838 50.5976 38.2838 50.5976C38.2838 50.7279 39.7665 45.653 36.9452 41.8332C34.5839 38.6305 30.4584 38.3562 28.1588 40.6125C28.1245 40.6399 28.097 40.6742 28.0627 40.7085L28.1726 40.5919V40.5987Z" fill="#E7938C"/>
<path d="M23.5752 40.6536C23.5409 40.6193 23.5203 40.585 23.4859 40.5507C21.1521 38.3288 17.0334 38.658 14.7133 41.888C11.9401 45.7422 13.4845 50.7073 13.512 50.7279C13.5257 50.7485 13.5738 50.7485 13.5738 50.7485C13.4365 50.7485 18.5161 52.2298 22.3465 49.4112C25.5453 47.0452 25.8267 42.9304 23.5683 40.6262C23.534 40.5919 23.4997 40.5644 23.4722 40.5302L23.582 40.6468L23.5752 40.6536Z" fill="#E7938C"/>
<path d="M28.1736 36.0587C28.1392 36.0244 28.1049 35.997 28.0775 35.9627C25.8534 33.6379 26.1829 29.5162 29.416 27.1983C33.2738 24.4277 38.3329 25.9776 38.2093 25.9776C38.2093 25.9776 38.2436 25.9776 38.2642 25.9981C38.2848 26.0187 38.2848 26.0667 38.2848 26.0598C38.2848 25.9295 39.7675 31.0044 36.9531 34.8243C34.5918 38.0269 30.4594 38.3012 28.1598 36.0518C28.1255 36.0176 28.0981 35.9833 28.0706 35.9559L28.1804 36.0656L28.1736 36.0587Z" fill="#E7938C"/>
<path d="M23.574 36.0039C23.574 36.0039 23.5191 36.0725 23.4847 36.0999C21.1508 38.3287 17.0322 37.9927 14.7052 34.7626C11.932 30.9016 13.4833 25.8473 13.4833 25.9776C13.4833 25.9776 13.4833 25.9433 13.4971 25.9159C13.5245 25.8953 13.5657 25.8953 13.5657 25.8953C13.4284 25.8953 18.5081 24.4071 22.3315 27.2326C25.5372 29.5917 25.8118 33.7202 23.5534 36.0108C23.5191 36.045 23.4847 36.0725 23.4573 36.1068L23.5671 35.997L23.574 36.0039Z" fill="#E7938C"/>
<path d="M27.8245 35.7364C28.4149 35.0781 28.7581 34.1317 28.5933 33.0481C28.2295 30.6547 25.8956 29.386 25.875 29.386C25.8613 29.386 25.8476 29.4066 25.8476 29.3997C25.8956 29.3517 23.5137 30.6204 23.1224 33.0138C22.9439 34.1042 23.2734 35.0643 23.8706 35.7296L23.2597 36.3331C22.5939 35.7364 21.6329 35.4073 20.5414 35.5856C18.1389 35.9765 16.9102 38.3219 16.9102 38.3424C16.9102 38.3562 16.9239 38.3699 16.9239 38.3699C16.8827 38.3287 17.8025 40.0089 19.5324 40.7496C20.0129 40.8044 21.9967 40.7702 22.5527 40.7633C22.8067 40.6399 23.0332 40.4821 23.2323 40.3038L23.8432 40.9142C23.2528 41.5794 22.9302 42.5326 23.1087 43.6093C23.5 46.0028 25.8476 47.2372 25.8613 47.2372C25.8819 47.2372 25.8956 47.2235 25.8956 47.2235C25.8476 47.2715 28.2158 45.9753 28.5727 43.575C28.7375 42.5052 28.408 41.5657 27.8314 40.9073L28.4423 40.297C28.6688 40.4958 28.9297 40.6673 29.2249 40.8044C29.6985 40.8044 31.5931 40.8182 32.0461 40.7907C33.8377 40.0706 34.7644 38.3082 34.7644 38.3082C34.8125 38.3562 33.5494 35.9696 31.1469 35.5787C30.0486 35.4004 29.0876 35.7296 28.4217 36.3331L27.8108 35.7296L27.8245 35.7364Z" fill="#E9B0A8"/>
<path d="M32.1762 40.7772H19.5938L25.8884 33.1306L32.1762 40.7772Z" fill="#EAD0C9"/>
<path d="M66.6665 20.4705L72.4118 35.0525L78.1329 20.4705H80.4555L73.3654 37.8127H71.4584L64.3438 20.4705H66.6665Z" fill="white"/>
<path d="M86.4447 38.0572C85.4828 38.0572 84.6026 37.882 83.8043 37.532C83.0054 37.1821 82.3209 36.7057 81.7505 36.1031C81.1799 35.5009 80.7359 34.7964 80.4181 33.9903C80.1002 33.1843 79.9414 32.3335 79.9414 31.4378C79.9414 30.5424 80.1002 29.6955 80.4181 28.8975C80.7359 28.0999 81.184 27.3995 81.7628 26.797C82.3412 26.1947 83.0299 25.7183 83.8287 25.368C84.6271 25.0179 85.5072 24.8428 86.469 24.8428C87.4306 24.8428 88.3065 25.0222 89.0973 25.3802C89.8878 25.7386 90.5601 26.2148 91.1144 26.8092C91.6683 27.4037 92.0961 28.0956 92.3979 28.8853C92.6993 29.6754 92.8502 30.4936 92.8502 31.3401C92.8502 31.5194 92.846 31.6821 92.838 31.8286C92.8296 31.9752 92.8173 32.0893 92.8014 32.1705H82.2151C82.264 32.8056 82.4107 33.3839 82.6551 33.9048C82.8997 34.4261 83.2174 34.8737 83.6087 35.2482C83.9998 35.623 84.4436 35.9161 84.941 36.1276C85.438 36.3394 85.9636 36.4451 86.518 36.4451C86.9092 36.4451 87.292 36.3925 87.6672 36.2863C88.0418 36.1805 88.3921 36.0381 88.7183 35.8589C89.0442 35.6799 89.3334 35.46 89.5863 35.1994C89.8388 34.9391 90.0303 34.6459 90.1609 34.32L92.0189 34.833C91.807 35.3054 91.5178 35.7368 91.1511 36.1276C90.7842 36.5183 90.3603 36.8565 89.8798 37.1412C89.3988 37.4262 88.8651 37.6502 88.2783 37.8129C87.6916 37.9756 87.0803 38.0572 86.4447 38.0572ZM90.8209 30.5828C90.7721 29.9806 90.6211 29.4227 90.3686 28.9097C90.1157 28.3969 89.798 27.9614 89.4152 27.6029C89.0321 27.245 88.5877 26.9641 88.0827 26.7602C87.5773 26.5568 87.0395 26.4549 86.469 26.4549C85.8984 26.4549 85.3605 26.5568 84.8556 26.7602C84.35 26.9641 83.9059 27.2488 83.5231 27.6151C83.1399 27.9815 82.8302 28.4174 82.594 28.9219C82.3576 29.4268 82.2151 29.9806 82.1661 30.5828H90.8209Z" fill="white"/>
<path d="M106.321 37.8129H104.17V30.6806C104.17 29.3127 103.962 28.3196 103.546 27.7006C103.131 27.082 102.499 26.7724 101.652 26.7724C101.212 26.7724 100.771 26.858 100.331 27.0289C99.8913 27.2 99.4757 27.432 99.0844 27.725C98.6933 28.0181 98.351 28.3685 98.0577 28.7754C97.7643 29.1825 97.5442 29.6302 97.3975 30.1188V37.8129H95.2461V25.0627H97.202V27.7984C97.7069 26.903 98.4367 26.1863 99.3901 25.6489C100.344 25.1115 101.383 24.8428 102.507 24.8428C103.241 24.8428 103.852 24.9772 104.341 25.2459C104.83 25.5146 105.221 25.8894 105.514 26.3694C105.808 26.8499 106.016 27.4159 106.138 28.0671C106.26 28.7185 106.321 29.4268 106.321 30.192V37.8129Z" fill="white"/>
<path d="M116.152 37.1777C116.021 37.243 115.85 37.3204 115.638 37.4098C115.426 37.4995 115.186 37.5891 114.917 37.6785C114.648 37.7681 114.355 37.841 114.037 37.8982C113.719 37.9551 113.389 37.9838 113.046 37.9838C112.264 37.9838 111.588 37.7681 111.017 37.3365C110.447 36.9052 110.162 36.2335 110.162 35.3213V26.7479H108.426V25.0625H110.162V20.8125H112.313V25.0625H115.174V26.7479H112.313V34.6618C112.346 35.1344 112.5 35.4763 112.778 35.6877C113.055 35.8996 113.38 36.0052 113.756 36.0052C114.179 36.0052 114.566 35.9362 114.917 35.7977C115.267 35.6595 115.507 35.5496 115.638 35.468L116.152 37.1777Z" fill="white"/>
<path d="M122.09 38.057C120.753 38.057 119.743 37.6093 119.058 36.7137C118.374 35.8183 118.031 34.4828 118.031 32.7078V25.0625H120.183V32.2926C120.183 34.898 121.087 36.2007 122.896 36.2007C123.777 36.2007 124.604 35.9197 125.378 35.3579C126.152 34.7962 126.727 34.0267 127.102 33.0497V25.0625H129.253V35.1748C129.253 35.6797 129.481 35.9403 129.938 35.9564V37.8127C129.693 37.8452 129.501 37.8654 129.363 37.8738C129.225 37.8819 129.09 37.886 128.96 37.886C128.536 37.886 128.181 37.7601 127.896 37.5074C127.611 37.2552 127.46 36.9418 127.444 36.567L127.395 35.077C126.824 36.038 126.075 36.7747 125.146 37.2875C124.217 37.8005 123.198 38.057 122.09 38.057Z" fill="white"/>
<path d="M139.595 26.9433C138.52 26.9761 137.57 27.2527 136.747 27.7738C135.924 28.2951 135.341 29.0194 134.999 29.9476V37.8127H132.848V25.0625H134.852V28.018C135.293 27.1388 135.871 26.4265 136.588 25.8808C137.305 25.3353 138.071 25.0302 138.886 24.9648H139.302C139.416 24.9648 139.514 24.9732 139.595 24.9893V26.9433Z" fill="white"/>
<path d="M147.078 38.0572C146.116 38.0572 145.236 37.882 144.437 37.532C143.638 37.1821 142.954 36.7057 142.383 36.1031C141.813 35.5009 141.369 34.7964 141.051 33.9903C140.733 33.1843 140.574 32.3335 140.574 31.4378C140.574 30.5424 140.733 29.6955 141.051 28.8975C141.369 28.0999 141.817 27.3995 142.396 26.797C142.974 26.1947 143.663 25.7183 144.461 25.368C145.26 25.0179 146.14 24.8428 147.102 24.8428C148.064 24.8428 148.939 25.0222 149.73 25.3802C150.521 25.7386 151.193 26.2148 151.747 26.8092C152.301 27.4037 152.729 28.0956 153.031 28.8853C153.332 29.6754 153.483 30.4936 153.483 31.3401C153.483 31.5194 153.479 31.6821 153.471 31.8286C153.462 31.9752 153.45 32.0893 153.434 32.1705H142.848C142.897 32.8056 143.044 33.3839 143.288 33.9048C143.532 34.4261 143.85 34.8737 144.241 35.2482C144.633 35.623 145.077 35.9161 145.574 36.1276C146.071 36.3394 146.596 36.4451 147.151 36.4451C147.542 36.4451 147.925 36.3925 148.3 36.2863C148.675 36.1805 149.025 36.0381 149.351 35.8589C149.677 35.6799 149.966 35.46 150.219 35.1994C150.472 34.9391 150.663 34.6459 150.794 34.32L152.652 34.833C152.44 35.3054 152.151 35.7368 151.784 36.1276C151.417 36.5183 150.993 36.8565 150.513 37.1412C150.031 37.4262 149.498 37.6502 148.911 37.8129C148.324 37.9756 147.713 38.0572 147.078 38.0572ZM151.454 30.5828C151.405 29.9806 151.254 29.4227 151.001 28.9097C150.749 28.3969 150.431 27.9614 150.048 27.6029C149.665 27.245 149.22 26.9641 148.716 26.7602C148.21 26.5568 147.672 26.4549 147.102 26.4549C146.531 26.4549 145.993 26.5568 145.488 26.7602C144.983 26.9641 144.539 27.2488 144.156 27.6151C143.773 27.9815 143.463 28.4174 143.227 28.9219C142.99 29.4268 142.848 29.9806 142.799 30.5828H151.454Z" fill="white"/>
<path d="M156.359 28.8965C156.359 27.8546 156.555 26.8165 156.946 25.7823C157.337 24.7484 157.908 23.8244 158.658 23.0099C159.407 22.1959 160.32 21.5364 161.396 21.0315C162.472 20.5269 163.694 20.2742 165.063 20.2742C166.693 20.2742 168.107 20.6247 169.305 21.3246C170.503 22.0248 171.395 22.9367 171.982 24.0602L168.902 26.2097C168.706 25.7541 168.457 25.3753 168.156 25.0738C167.854 24.7728 167.524 24.5285 167.166 24.3411C166.807 24.1542 166.44 24.0236 166.066 23.9503C165.69 23.8771 165.324 23.8405 164.965 23.8405C164.199 23.8405 163.531 23.9953 162.961 24.3045C162.39 24.6141 161.917 25.0128 161.543 25.5014C161.168 25.9898 160.89 26.5437 160.711 27.1623C160.532 27.7813 160.442 28.408 160.442 29.0431C160.442 29.727 160.548 30.3865 160.76 31.0215C160.972 31.6566 161.277 32.2184 161.677 32.7069C162.076 33.1955 162.557 33.5824 163.119 33.8672C163.682 34.1522 164.313 34.2946 165.014 34.2946C165.373 34.2946 165.743 34.25 166.127 34.1603C166.509 34.071 166.876 33.9325 167.227 33.7451C167.577 33.558 167.899 33.3137 168.192 33.0122C168.486 32.7112 168.722 32.3405 168.902 31.9009L172.178 33.8305C171.917 34.4656 171.53 35.0358 171.016 35.5403C170.503 36.0452 169.912 36.4685 169.244 36.8104C168.575 37.1524 167.866 37.4131 167.117 37.5921C166.367 37.7711 165.634 37.8607 164.916 37.8607C163.661 37.8607 162.508 37.6043 161.457 37.0913C160.406 36.5783 159.501 35.8987 158.743 35.0518C157.985 34.2053 157.398 33.2443 156.983 32.1696C156.567 31.0948 156.359 30.0041 156.359 28.8965Z" fill="white"/>
<path d="M177.508 37.9588C176.873 37.9588 176.282 37.8569 175.736 37.6535C175.189 37.4501 174.721 37.1649 174.33 36.7985C173.939 36.4322 173.629 36.0009 173.401 35.504C173.172 35.0074 173.059 34.4659 173.059 33.8797C173.059 33.2446 173.193 32.6667 173.462 32.1455C173.731 31.6244 174.11 31.1769 174.599 30.802C175.088 30.4277 175.666 30.1346 176.335 29.9228C177.003 29.7113 177.744 29.6052 178.559 29.6052C179.097 29.6052 179.619 29.6502 180.124 29.7395C180.629 29.8292 181.069 29.9635 181.444 30.1425V29.5562C181.444 28.0748 180.589 27.3336 178.877 27.3336C178.176 27.3336 177.508 27.4519 176.873 27.6878C176.237 27.924 175.568 28.2782 174.868 28.7503L173.719 26.3076C174.566 25.7544 175.446 25.339 176.359 25.0619C177.272 24.7853 178.242 24.6467 179.268 24.6467C181.208 24.6467 182.707 25.1028 183.767 26.0145C184.826 26.9267 185.356 28.2617 185.356 30.0204V33.3178C185.356 33.7086 185.417 33.9816 185.539 34.1362C185.662 34.291 185.878 34.3846 186.188 34.4171V37.7145C185.845 37.7958 185.535 37.8488 185.258 37.8732C184.981 37.8978 184.728 37.91 184.5 37.91C183.767 37.91 183.213 37.7671 182.838 37.4824C182.463 37.1977 182.227 36.7947 182.129 36.2733L182.056 35.6872C181.485 36.42 180.805 36.9818 180.014 37.3726C179.223 37.7633 178.388 37.9588 177.508 37.9588ZM178.657 35.1498C179.081 35.1498 179.492 35.0766 179.892 34.9299C180.291 34.7834 180.621 34.588 180.882 34.3437C181.257 34.0507 181.444 33.7416 181.444 33.4156V32.1943C181.102 32.0642 180.731 31.9622 180.332 31.889C179.933 31.8158 179.562 31.779 179.22 31.779C178.502 31.779 177.912 31.942 177.447 32.2676C176.983 32.5935 176.75 33.0168 176.75 33.5377C176.75 34.0101 176.929 34.3968 177.288 34.698C177.646 34.9995 178.103 35.1498 178.657 35.1498Z" fill="white"/>
<path d="M196.405 37.0307C195.868 37.259 195.252 37.4703 194.56 37.6658C193.867 37.8611 193.17 37.9589 192.469 37.9589C191.98 37.9589 191.52 37.8979 191.088 37.7757C190.656 37.6536 190.277 37.4581 189.951 37.1894C189.625 36.9209 189.368 36.5666 189.181 36.127C188.993 35.6873 188.9 35.1583 188.9 34.5393V27.8466H187.262V24.8911H188.9V20.812H192.812V24.8911H195.428V27.8466H192.812V33.1959C192.812 33.6195 192.917 33.9248 193.129 34.1119C193.341 34.2993 193.61 34.3928 193.936 34.3928C194.23 34.3928 194.531 34.3438 194.841 34.2462C195.15 34.1485 195.419 34.0428 195.648 33.9286L196.405 37.0307Z" fill="white"/>
<path d="M201.563 37.9588C200.927 37.9588 200.336 37.8569 199.79 37.6535C199.244 37.4501 198.776 37.1649 198.385 36.7985C197.993 36.4322 197.683 36.0009 197.455 35.504C197.227 35.0074 197.113 34.4659 197.113 33.8797C197.113 33.2446 197.248 32.6667 197.516 32.1455C197.786 31.6244 198.165 31.1769 198.653 30.802C199.143 30.4277 199.721 30.1346 200.389 29.9228C201.057 29.7113 201.799 29.6052 202.614 29.6052C203.152 29.6052 203.674 29.6502 204.179 29.7395C204.684 29.8292 205.124 29.9635 205.499 30.1425V29.5562C205.499 28.0748 204.643 27.3336 202.932 27.3336C202.231 27.3336 201.563 27.4519 200.927 27.6878C200.291 27.924 199.623 28.2782 198.923 28.7503L197.773 26.3076C198.621 25.7544 199.501 25.339 200.414 25.0619C201.326 24.7853 202.296 24.6467 203.323 24.6467C205.263 24.6467 206.762 25.1028 207.822 26.0145C208.881 26.9267 209.411 28.2617 209.411 30.0204V33.3178C209.411 33.7086 209.472 33.9816 209.594 34.1362C209.717 34.291 209.932 34.3846 210.242 34.4171V37.7145C209.9 37.7958 209.59 37.8488 209.313 37.8732C209.036 37.8978 208.783 37.91 208.555 37.91C207.822 37.91 207.268 37.7671 206.893 37.4824C206.518 37.1977 206.282 36.7947 206.184 36.2733L206.11 35.6872C205.54 36.42 204.859 36.9818 204.069 37.3726C203.278 37.7633 202.443 37.9588 201.563 37.9588ZM202.712 35.1498C203.136 35.1498 203.547 35.0766 203.947 34.9299C204.346 34.7834 204.676 34.588 204.937 34.3437C205.312 34.0507 205.499 33.7416 205.499 33.4156V32.1943C205.157 32.0642 204.786 31.9622 204.387 31.889C203.987 31.8158 203.617 31.779 203.274 31.779C202.557 31.779 201.966 31.942 201.502 32.2676C201.037 32.5935 200.805 33.0168 200.805 33.5377C200.805 34.0101 200.984 34.3968 201.343 34.698C201.701 34.9995 202.158 35.1498 202.712 35.1498Z" fill="white"/>
<path d="M212.199 19.8835H216.111V33.1468C216.111 34.1238 216.527 34.6122 217.358 34.6122C217.553 34.6122 217.769 34.584 218.006 34.5268C218.242 34.4699 218.458 34.3844 218.654 34.2703L219.167 37.2014C218.678 37.4296 218.116 37.6086 217.48 37.7388C216.844 37.8689 216.249 37.9342 215.695 37.9342C214.571 37.9342 213.707 37.6411 213.104 37.0549C212.501 36.4686 212.199 35.6221 212.199 34.5146V19.8835Z" fill="white"/>
<path d="M220.269 39.6438C220.595 39.758 220.9 39.8391 221.186 39.888C221.47 39.9368 221.727 39.9618 221.956 39.9618C222.428 39.9618 222.795 39.7989 223.056 39.4729C223.316 39.147 223.553 38.5611 223.765 37.7144L218.875 24.8909H222.909L225.892 34.3681L228.459 24.8909H232.126L227.237 39.7903C226.894 40.8487 226.283 41.708 225.403 42.3672C224.523 43.027 223.479 43.3566 222.273 43.3566C221.947 43.3566 221.617 43.3279 221.283 43.2711C220.949 43.2138 220.611 43.1204 220.269 42.9904V39.6438Z" fill="white"/>
<path d="M238.432 37.9588C237.34 37.9588 236.265 37.7836 235.205 37.4336C234.145 37.0837 233.249 36.5748 232.516 35.907L233.909 33.5133C234.692 34.0507 235.453 34.4659 236.195 34.759C236.937 35.0522 237.65 35.1986 238.335 35.1986C238.84 35.1986 239.231 35.1094 239.508 34.9299C239.785 34.7509 239.924 34.4903 239.924 34.1484C239.924 33.8064 239.748 33.5339 239.398 33.33C239.047 33.1266 238.432 32.911 237.552 32.6828C236.688 32.4385 235.959 32.2027 235.364 31.9745C234.769 31.7466 234.284 31.4944 233.909 31.2173C233.534 30.9405 233.265 30.623 233.103 30.2647C232.939 29.9067 232.858 29.483 232.858 28.9946C232.858 28.3435 232.988 27.7488 233.249 27.2114C233.51 26.674 233.869 26.2184 234.325 25.8436C234.781 25.4692 235.323 25.1761 235.951 24.9643C236.578 24.7528 237.259 24.6467 237.992 24.6467C238.954 24.6467 239.854 24.7773 240.694 25.0375C241.533 25.2983 242.344 25.7704 243.126 26.4543L241.611 28.7991C240.877 28.2946 240.225 27.9281 239.655 27.7C239.084 27.472 238.53 27.3581 237.992 27.3581C237.568 27.3581 237.21 27.4435 236.917 27.6144C236.623 27.7855 236.477 28.0583 236.477 28.4327C236.477 28.7912 236.636 29.0597 236.953 29.2387C237.271 29.4182 237.862 29.6136 238.726 29.825C239.638 30.0692 240.409 30.3135 241.036 30.5578C241.663 30.802 242.173 31.075 242.564 31.376C242.955 31.6775 243.24 32.0233 243.42 32.4141C243.599 32.805 243.689 33.269 243.689 33.8064C243.689 35.0766 243.216 36.0864 242.271 36.8351C241.325 37.5843 240.046 37.9588 238.432 37.9588Z" fill="white"/>
<path d="M253.886 37.0307C253.348 37.259 252.733 37.4703 252.04 37.6658C251.347 37.8611 250.65 37.9589 249.95 37.9589C249.461 37.9589 249 37.8979 248.568 37.7757C248.136 37.6536 247.757 37.4581 247.431 37.1894C247.105 36.9209 246.849 36.5666 246.662 36.127C246.474 35.6873 246.38 35.1583 246.38 34.5393V27.8466H244.742V24.8911H246.38V20.812H250.292V24.8911H252.908V27.8466H250.292V33.1959C250.292 33.6195 250.398 33.9248 250.61 34.1119C250.822 34.2993 251.09 34.3928 251.417 34.3928C251.71 34.3928 252.011 34.3438 252.321 34.2462C252.631 34.1485 252.9 34.0428 253.128 33.9286L253.886 37.0307Z" fill="white"/>
<path d="M260.46 37.9588C259.367 37.9588 258.292 37.7836 257.233 37.4336C256.173 37.0837 255.277 36.5748 254.543 35.907L255.937 33.5133C256.719 34.0507 257.481 34.4659 258.223 34.759C258.964 35.0522 259.677 35.1986 260.362 35.1986C260.867 35.1986 261.258 35.1094 261.535 34.9299C261.812 34.7509 261.951 34.4903 261.951 34.1484C261.951 33.8064 261.776 33.5339 261.425 33.33C261.075 33.1266 260.46 32.911 259.579 32.6828C258.715 32.4385 257.986 32.2027 257.392 31.9745C256.796 31.7466 256.311 31.4944 255.937 31.2173C255.561 30.9405 255.293 30.623 255.13 30.2647C254.967 29.9067 254.885 29.483 254.885 28.9946C254.885 28.3435 255.016 27.7488 255.277 27.2114C255.537 26.674 255.896 26.2184 256.352 25.8436C256.809 25.4692 257.35 25.1761 257.978 24.9643C258.605 24.7528 259.286 24.6467 260.019 24.6467C260.981 24.6467 261.881 24.7773 262.721 25.0375C263.561 25.2983 264.371 25.7704 265.154 26.4543L263.638 28.7991C262.905 28.2946 262.252 27.9281 261.682 27.7C261.111 27.472 260.557 27.3581 260.019 27.3581C259.596 27.3581 259.237 27.4435 258.944 27.6144C258.651 27.7855 258.504 28.0583 258.504 28.4327C258.504 28.7912 258.663 29.0597 258.98 29.2387C259.298 29.4182 259.889 29.6136 260.753 29.825C261.666 30.0692 262.436 30.3135 263.063 30.5578C263.691 30.802 264.2 31.075 264.592 31.376C264.983 31.6775 265.268 32.0233 265.447 32.4141C265.626 32.805 265.716 33.269 265.716 33.8064C265.716 35.0766 265.243 36.0864 264.298 36.8351C263.353 37.5843 262.073 37.9588 260.46 37.9588Z" fill="white"/>
<path d="M274.79 23.1658V26.2923H272.467V28.8326H268.946V26.2923H266.648V23.1658H268.946V20.6255H272.467V23.1658H274.79Z" fill="white"/>
<path d="M285.157 23.1658V26.2923H282.834V28.8326H279.314V26.2923H277.016V23.1658H279.314V20.6255H282.834V23.1658H285.157Z" fill="white"/>
<path d="M84.7812 58.982V48.9976H86.0481V58.982H84.7812Z" fill="white"/>
<path d="M94.759 58.9819H93.5204V54.8758C93.5204 54.0881 93.4007 53.5165 93.1615 53.1601C92.9222 52.804 92.5584 52.6257 92.0706 52.6257C91.8172 52.6257 91.5639 52.6749 91.3105 52.7734C91.0571 52.8717 90.8179 53.0054 90.5927 53.1741C90.3674 53.3429 90.1704 53.5446 90.0015 53.7787C89.8326 54.0134 89.7058 54.2709 89.6214 54.5523V58.9819H88.3828V51.6412H89.5088V53.2162C89.7996 52.7008 90.2197 52.2882 90.7686 51.9788C91.3176 51.6693 91.9157 51.5149 92.5633 51.5149C92.9855 51.5149 93.3373 51.5921 93.6189 51.7468C93.9004 51.9016 94.1257 52.1173 94.2946 52.3938C94.4635 52.6703 94.583 52.9962 94.6535 53.371C94.7239 53.746 94.759 54.1537 94.759 54.5944V58.9819Z" fill="white"/>
<path d="M99.8565 59.1227C99.3497 59.1227 98.8804 59.0193 98.4489 58.8133C98.0172 58.6073 97.6467 58.3305 97.3369 57.9835C97.0273 57.6368 96.7856 57.2337 96.6121 56.7741C96.4382 56.3151 96.3516 55.832 96.3516 55.3257C96.3516 54.8103 96.4336 54.3202 96.598 53.8563C96.762 53.3922 96.9921 52.9869 97.2876 52.6399C97.5833 52.2932 97.9351 52.0189 98.3434 51.8171C98.7515 51.6157 99.1995 51.515 99.6876 51.515C100.279 51.515 100.807 51.6694 101.271 51.9789C101.736 52.2883 102.104 52.6634 102.376 53.1041V48.7166H103.615V57.4632C103.615 57.754 103.746 57.9042 104.009 57.9133V58.9821C103.877 59.0007 103.772 59.0147 103.692 59.0242C103.612 59.0333 103.535 59.0382 103.46 59.0382C103.216 59.0382 103.002 58.9564 102.819 58.7922C102.636 58.6284 102.545 58.4385 102.545 58.2228V57.6039C102.254 58.0821 101.867 58.4547 101.384 58.722C100.9 58.9891 100.391 59.1227 99.8565 59.1227ZM100.152 58.054C100.377 58.054 100.61 58.0116 100.849 57.9274C101.088 57.8431 101.313 57.726 101.524 57.5758C101.736 57.426 101.919 57.2502 102.073 57.0485C102.228 56.847 102.329 56.6337 102.376 56.4085V54.2991C102.292 54.0651 102.165 53.8423 101.996 53.6314C101.827 53.4202 101.637 53.2374 101.426 53.0827C101.215 52.9283 100.99 52.8065 100.75 52.7171C100.511 52.6283 100.274 52.5837 100.039 52.5837C99.6735 52.5837 99.3427 52.6609 99.0472 52.8157C98.7515 52.9704 98.4982 53.1767 98.2871 53.4343C98.076 53.6924 97.9141 53.9875 97.8015 54.3202C97.6889 54.6531 97.6325 54.9931 97.6325 55.3398C97.6325 55.7054 97.6981 56.0548 97.8295 56.3875C97.9609 56.7204 98.1392 57.0088 98.3644 57.2523C98.5896 57.4962 98.8546 57.6909 99.1598 57.8358C99.4645 57.9814 99.7953 58.054 100.152 58.054Z" fill="white"/>
<path d="M105.824 50.2632V48.7166H107.063V50.2632H105.824ZM105.824 58.9821V51.6414H107.063V58.9821H105.824Z" fill="white"/>
<path d="M111.088 59.1226C110.741 59.1226 110.417 59.064 110.117 58.9468C109.817 58.8297 109.556 58.6679 109.336 58.4616C109.115 58.2556 108.942 58.0139 108.815 57.7374C108.688 57.4609 108.625 57.1585 108.625 56.8304C108.625 56.4929 108.7 56.1859 108.85 55.9094C109 55.6329 109.214 55.3961 109.491 55.199C109.767 55.0021 110.096 54.8474 110.476 54.7351C110.856 54.6225 111.271 54.5663 111.722 54.5663C112.078 54.5663 112.44 54.5993 112.805 54.6646C113.171 54.7305 113.495 54.8193 113.777 54.9319V54.3414C113.777 53.7415 113.608 53.2703 113.27 52.9282C112.932 52.5861 112.454 52.4149 111.834 52.4149C111.093 52.4149 110.314 52.7008 109.498 53.2727L109.09 52.471C110.037 51.8335 110.99 51.5149 111.947 51.5149C112.913 51.5149 113.666 51.7728 114.206 52.2882C114.746 52.804 115.015 53.5306 115.015 54.4678V57.4631C115.015 57.7539 115.147 57.9041 115.409 57.9132V58.9819C115.278 59.0005 115.17 59.0146 115.086 59.024C115.001 59.0332 114.912 59.0381 114.818 59.0381C114.574 59.0381 114.38 58.9658 114.234 58.8202C114.089 58.6749 114.002 58.4991 113.974 58.2928L113.946 57.7725C113.617 58.2132 113.202 58.5483 112.7 58.7781C112.198 59.0076 111.661 59.1226 111.088 59.1226ZM111.412 58.1946C111.853 58.1946 112.264 58.1125 112.644 57.9483C113.024 57.7844 113.312 57.5665 113.509 57.2943C113.687 57.1164 113.777 56.9336 113.777 56.7459V55.6631C113.176 55.4291 112.552 55.3116 111.905 55.3116C111.285 55.3116 110.781 55.4431 110.392 55.7053C110.002 55.968 109.807 56.3101 109.807 56.7319C109.807 56.9382 109.847 57.1304 109.927 57.3083C110.007 57.4866 110.119 57.6413 110.265 57.7725C110.41 57.9041 110.582 58.0069 110.779 58.082C110.976 58.157 111.187 58.1946 111.412 58.1946Z" fill="white"/>
<path d="M116.875 51.9367V48.8853H117.945V51.9367H116.875Z" fill="white"/>
<path d="M122.489 59.1226C121.898 59.1226 121.316 59.0311 120.743 58.8483C120.171 58.6655 119.678 58.4009 119.266 58.0539L119.8 57.2241C120.232 57.5525 120.664 57.7985 121.095 57.9623C121.527 58.1265 121.982 58.2086 122.461 58.2086C122.996 58.2086 123.42 58.103 123.735 57.8922C124.049 57.6813 124.206 57.3837 124.206 56.9992C124.206 56.8213 124.164 56.6687 124.079 56.5421C123.995 56.4154 123.868 56.3055 123.699 56.2115C123.53 56.1182 123.314 56.0336 123.052 55.9586C122.789 55.8835 122.484 55.8038 122.137 55.7193C121.696 55.607 121.316 55.4993 120.997 55.3961C120.678 55.293 120.415 55.1709 120.209 55.0305C120.002 54.8898 119.852 54.7211 119.758 54.5242C119.664 54.3274 119.617 54.0836 119.617 53.7927C119.617 53.4271 119.69 53.1015 119.836 52.8156C119.981 52.5296 120.181 52.2906 120.434 52.0984C120.687 51.9064 120.985 51.7609 121.328 51.6623C121.67 51.564 122.038 51.5149 122.433 51.5149C122.986 51.5149 123.502 51.604 123.981 51.7819C124.46 51.9601 124.863 52.1945 125.191 52.485L124.628 53.2303C124.319 52.9587 123.971 52.7545 123.587 52.6187C123.202 52.4829 122.808 52.4149 122.404 52.4149C121.954 52.4149 121.572 52.511 121.257 52.7029C120.943 52.8952 120.786 53.2022 120.786 53.6243C120.786 53.7927 120.816 53.9334 120.877 54.046C120.938 54.1586 121.039 54.2569 121.18 54.3414C121.321 54.4257 121.501 54.5007 121.722 54.5663C121.942 54.632 122.207 54.7025 122.517 54.7772C123.005 54.8898 123.43 55.0046 123.791 55.1218C124.152 55.2393 124.452 55.3772 124.692 55.5365C124.931 55.6961 125.109 55.8835 125.227 56.0992C125.344 56.315 125.402 56.5771 125.402 56.8866C125.402 57.5711 125.14 58.1149 124.614 58.5178C124.089 58.9212 123.38 59.1226 122.489 59.1226Z" fill="white"/>
<path d="M135.708 57.8573V58.9822H130.655V57.8573H132.654V52.3727C132.569 52.4853 132.438 52.6049 132.26 52.7313C132.081 52.8579 131.882 52.9754 131.661 53.0828C131.441 53.1909 131.213 53.2821 130.979 53.3572C130.744 53.4323 130.538 53.4698 130.359 53.4698V52.2885C130.566 52.2885 130.796 52.2299 131.049 52.1127C131.303 51.9955 131.544 51.8594 131.774 51.705C132.004 51.5502 132.201 51.4004 132.365 51.2548C132.529 51.1096 132.626 51.0089 132.654 50.9524H133.92V57.8573H135.708Z" fill="white"/>
<path d="M157.131 58.982V51.2617L153.809 57.1821H153.091L149.755 51.2617V58.982H148.488V48.9976H149.825L153.443 55.4804L157.074 48.9976H158.397V58.982H157.131Z" fill="white"/>
<path d="M163.001 59.1227C162.231 59.1227 161.649 58.8649 161.255 58.3491C160.861 57.8337 160.664 57.0649 160.664 56.0429V51.6414H161.903V55.804C161.903 57.3039 162.423 58.054 163.465 58.054C163.972 58.054 164.448 57.8923 164.893 57.5688C165.34 57.2453 165.67 56.8025 165.886 56.2397V51.6414H167.125V57.4632C167.125 57.754 167.256 57.9042 167.519 57.9133V58.9821C167.378 59.0007 167.268 59.0123 167.188 59.0172C167.108 59.0217 167.031 59.0242 166.956 59.0242C166.712 59.0242 166.508 58.9518 166.344 58.8063C166.179 58.661 166.093 58.4807 166.083 58.2649L166.055 57.407C165.726 57.9603 165.295 58.3845 164.76 58.6796C164.225 58.975 163.638 59.1227 163.001 59.1227Z" fill="white"/>
<path d="M169.359 48.7166H170.598V57.0836C170.598 57.3558 170.671 57.5688 170.816 57.7235C170.961 57.8782 171.166 57.9554 171.428 57.9554C171.532 57.9554 171.653 57.9393 171.794 57.9063C171.935 57.8737 172.066 57.8337 172.188 57.7867L172.386 58.7852C172.179 58.8694 171.935 58.9399 171.653 58.9961C171.372 59.0522 171.123 59.0806 170.907 59.0806C170.429 59.0806 170.051 58.9448 169.775 58.6726C169.497 58.401 169.359 58.0211 169.359 57.5337V48.7166Z" fill="white"/>
<path d="M177.299 58.6163C177.224 58.6539 177.126 58.6984 177.004 58.75C176.882 58.8016 176.743 58.8531 176.588 58.9047C176.434 58.9563 176.265 58.9981 176.082 59.0311C175.899 59.064 175.709 59.0805 175.512 59.0805C175.061 59.0805 174.672 58.9563 174.344 58.7076C174.015 58.4595 173.851 58.0728 173.851 57.5476V52.6117H172.852V51.6412H173.851V49.1943H175.089V51.6412H176.736V52.6117H175.089V57.168C175.108 57.4399 175.197 57.6367 175.357 57.7585C175.516 57.8806 175.704 57.9413 175.92 57.9413C176.164 57.9413 176.387 57.9016 176.588 57.8217C176.79 57.7423 176.928 57.6788 177.004 57.6318L177.299 58.6163Z" fill="white"/>
<path d="M178.594 50.2632V48.7166H179.832V50.2632H178.594ZM178.594 58.9821V51.6414H179.832V58.9821H178.594Z" fill="white"/>
<path d="M181.875 55.7054V54.5806H186.027V55.7054H181.875Z" fill="white"/>
<path d="M194.134 51.093C194.022 50.9618 193.871 50.8354 193.684 50.7134C193.496 50.5916 193.285 50.4814 193.051 50.3829C192.816 50.2846 192.56 50.205 192.283 50.1439C192.007 50.0829 191.718 50.0524 191.418 50.0524C190.639 50.0524 190.069 50.1979 189.708 50.4885C189.346 50.779 189.166 51.1776 189.166 51.6835C189.166 51.9557 189.217 52.1807 189.32 52.3586C189.424 52.5368 189.586 52.6891 189.806 52.8157C190.027 52.9424 190.301 53.0526 190.63 53.1462C190.958 53.2399 191.348 53.3385 191.798 53.4413C192.314 53.554 192.781 53.683 193.199 53.8283C193.616 53.9736 193.972 54.1539 194.268 54.3697C194.564 54.5854 194.789 54.8476 194.944 55.157C195.099 55.4665 195.176 55.8461 195.176 56.2963C195.176 56.7742 195.082 57.1892 194.895 57.5408C194.707 57.8923 194.451 58.1829 194.127 58.4127C193.804 58.6425 193.421 58.8112 192.98 58.9189C192.539 59.0264 192.06 59.0807 191.545 59.0807C190.775 59.0807 190.046 58.9611 189.356 58.7221C188.666 58.4828 188.04 58.1337 187.477 57.6744L188.082 56.6054C188.232 56.765 188.427 56.9243 188.666 57.0836C188.905 57.2432 189.177 57.386 189.482 57.5127C189.787 57.639 190.116 57.7425 190.468 57.8218C190.819 57.9018 191.188 57.9415 191.573 57.9415C192.286 57.9415 192.84 57.8148 193.234 57.5618C193.628 57.3085 193.825 56.9289 193.825 56.4226C193.825 56.1415 193.761 55.9047 193.635 55.7125C193.508 55.5205 193.323 55.3539 193.079 55.2135C192.835 55.0728 192.532 54.9486 192.171 54.8406C191.809 54.7332 191.399 54.6227 190.939 54.5104C190.433 54.3886 189.987 54.2571 189.602 54.1164C189.217 53.976 188.896 53.8073 188.638 53.6101C188.38 53.4133 188.185 53.1743 188.054 52.8929C187.922 52.6119 187.857 52.2744 187.857 51.8807C187.857 51.4025 187.946 50.9804 188.124 50.6148C188.302 50.2492 188.551 49.9401 188.87 49.6868C189.189 49.4338 189.569 49.244 190.01 49.1173C190.451 48.9907 190.93 48.9275 191.446 48.9275C192.121 48.9275 192.732 49.0306 193.276 49.2369C193.82 49.4432 194.303 49.7197 194.725 50.0664L194.134 51.093Z" fill="white"/>
<path d="M200.44 58.6163C200.365 58.6539 200.266 58.6984 200.145 58.75C200.022 58.8016 199.884 58.8531 199.729 58.9047C199.574 58.9563 199.405 58.9981 199.222 59.0311C199.04 59.064 198.849 59.0805 198.652 59.0805C198.202 59.0805 197.812 58.9563 197.484 58.7076C197.155 58.4595 196.992 58.0728 196.992 57.5476V52.6117H195.992V51.6412H196.992V49.1943H198.23V51.6412H199.877V52.6117H198.23V57.168C198.249 57.4399 198.338 57.6367 198.498 57.7585C198.657 57.8806 198.845 57.9413 199.06 57.9413C199.304 57.9413 199.527 57.9016 199.729 57.8217C199.931 57.7423 200.069 57.6788 200.145 57.6318L200.44 58.6163Z" fill="white"/>
<path d="M203.619 59.1226C203.272 59.1226 202.949 59.064 202.648 58.9468C202.348 58.8297 202.088 58.6679 201.867 58.4616C201.647 58.2556 201.473 58.0139 201.346 57.7374C201.22 57.4609 201.156 57.1585 201.156 56.8304C201.156 56.4929 201.231 56.1859 201.381 55.9094C201.532 55.6329 201.745 55.3961 202.022 55.199C202.299 55.0021 202.627 54.8474 203.007 54.7351C203.387 54.6225 203.803 54.5663 204.253 54.5663C204.609 54.5663 204.971 54.5993 205.337 54.6646C205.703 54.7305 206.026 54.8193 206.308 54.9319V54.3414C206.308 53.7415 206.139 53.2703 205.801 52.9282C205.463 52.5861 204.985 52.4149 204.366 52.4149C203.624 52.4149 202.846 52.7008 202.029 53.2727L201.621 52.471C202.568 51.8335 203.521 51.5149 204.478 51.5149C205.445 51.5149 206.198 51.7728 206.737 52.2882C207.277 52.804 207.547 53.5306 207.547 54.4678V57.4631C207.547 57.7539 207.678 57.9041 207.941 57.9132V58.9819C207.809 59.0005 207.702 59.0146 207.617 59.024C207.532 59.0332 207.443 59.0381 207.35 59.0381C207.105 59.0381 206.911 58.9658 206.765 58.8202C206.62 58.6749 206.533 58.4991 206.505 58.2928L206.477 57.7725C206.148 58.2132 205.733 58.5483 205.231 58.7781C204.729 59.0076 204.192 59.1226 203.619 59.1226ZM203.943 58.1946C204.384 58.1946 204.795 58.1125 205.175 57.9483C205.555 57.7844 205.844 57.5665 206.041 57.2943C206.219 57.1164 206.308 56.9336 206.308 56.7459V55.6631C205.707 55.4291 205.083 55.3116 204.436 55.3116C203.817 55.3116 203.312 55.4431 202.923 55.7053C202.533 55.968 202.339 56.3101 202.339 56.7319C202.339 56.9382 202.378 57.1304 202.458 57.3083C202.538 57.4866 202.651 57.6413 202.796 57.7725C202.942 57.9041 203.113 58.0069 203.31 58.082C203.507 58.157 203.718 58.1946 203.943 58.1946Z" fill="white"/>
<path d="M212.603 59.0662C212.106 59.0662 211.648 58.9633 211.231 58.757C210.813 58.5507 210.454 58.2742 210.154 57.9272C209.853 57.5806 209.621 57.182 209.457 56.7319C209.293 56.282 209.211 55.8133 209.211 55.3256C209.211 54.8102 209.293 54.3201 209.457 53.8562C209.621 53.392 209.853 52.9868 210.154 52.6398C210.454 52.2931 210.813 52.0187 211.231 51.817C211.648 51.6156 212.11 51.5149 212.617 51.5149C213.237 51.5149 213.771 51.6647 214.222 51.9647C214.672 52.265 215.052 52.6447 215.362 53.1039V51.6412H216.46V58.8977C216.46 59.4226 216.361 59.884 216.164 60.2826C215.967 60.6812 215.7 61.0162 215.362 61.2881C215.024 61.5601 214.628 61.7664 214.173 61.907C213.717 62.0474 213.232 62.1179 212.716 62.1179C211.881 62.1179 211.203 61.9748 210.682 61.6888C210.161 61.4029 209.727 61.0071 209.38 60.5008L210.098 59.8679C210.388 60.2991 210.764 60.6226 211.224 60.8383C211.683 61.0538 212.181 61.1615 212.716 61.1615C213.054 61.1615 213.375 61.1145 213.68 61.0211C213.985 60.9271 214.25 60.7864 214.475 60.5991C214.701 60.4114 214.881 60.1773 215.017 59.8959C215.153 59.6149 215.221 59.2819 215.221 58.8977V57.6038C215.081 57.8287 214.914 58.0328 214.721 58.2156C214.529 58.3984 214.32 58.5532 214.095 58.6795C213.87 58.8062 213.631 58.9023 213.377 58.9679C213.124 59.0332 212.866 59.0662 212.603 59.0662ZM212.983 58.0539C213.246 58.0539 213.499 58.0069 213.743 57.9132C213.987 57.8195 214.212 57.6953 214.419 57.5406C214.625 57.3859 214.799 57.2101 214.94 57.0132C215.081 56.8164 215.174 56.6147 215.221 56.4084V54.299C215.118 54.046 214.984 53.8165 214.82 53.6099C214.656 53.4039 214.47 53.2233 214.264 53.0685C214.058 52.9138 213.835 52.7945 213.596 52.71C213.356 52.6257 213.114 52.5836 212.871 52.5836C212.495 52.5836 212.16 52.6633 211.864 52.8226C211.569 52.9822 211.318 53.1931 211.111 53.4555C210.905 53.718 210.745 54.0158 210.633 54.3484C210.52 54.6811 210.464 55.0162 210.464 55.3537C210.464 55.7193 210.529 56.0663 210.661 56.3943C210.792 56.7227 210.97 57.0087 211.196 57.2522C211.421 57.496 211.686 57.6907 211.991 57.8357C212.296 57.9813 212.627 58.0539 212.983 58.0539Z" fill="white"/>
<path d="M221.85 59.1226C221.296 59.1226 220.789 59.0216 220.33 58.8202C219.87 58.6188 219.476 58.3444 219.147 57.9974C218.819 57.6508 218.563 57.2452 218.38 56.781C218.197 56.3171 218.105 55.8273 218.105 55.3116C218.105 54.7961 218.197 54.3085 218.38 53.8492C218.563 53.3899 218.821 52.9868 219.154 52.6398C219.487 52.2931 219.884 52.0187 220.344 51.817C220.803 51.6156 221.31 51.5149 221.864 51.5149C222.417 51.5149 222.922 51.618 223.377 51.824C223.832 52.0303 224.219 52.3047 224.538 52.6468C224.857 52.9892 225.103 53.3875 225.277 53.8422C225.451 54.2969 225.538 54.7681 225.538 55.2554C225.538 55.3586 225.535 55.4523 225.531 55.5365C225.526 55.621 225.519 55.6866 225.509 55.7336H219.415C219.443 56.0992 219.527 56.4319 219.668 56.7319C219.809 57.0322 219.992 57.2897 220.217 57.5055C220.442 57.7213 220.698 57.89 220.984 58.0115C221.27 58.1335 221.573 58.1946 221.892 58.1946C222.117 58.1946 222.338 58.1641 222.553 58.103C222.769 58.0423 222.971 57.9602 223.159 57.8571C223.346 57.7539 223.513 57.6273 223.658 57.4771C223.804 57.3273 223.914 57.1585 223.989 56.9711L225.059 57.2662C224.937 57.5385 224.77 57.7866 224.559 58.0115C224.348 58.2367 224.104 58.4314 223.827 58.5953C223.55 58.7595 223.243 58.8882 222.905 58.9819C222.567 59.0756 222.216 59.1226 221.85 59.1226ZM224.369 54.8193C224.341 54.4727 224.254 54.1516 224.109 53.8562C223.963 53.5608 223.78 53.3102 223.56 53.1039C223.339 52.8976 223.084 52.7359 222.793 52.6187C222.502 52.5015 222.192 52.4429 221.864 52.4429C221.535 52.4429 221.226 52.5015 220.935 52.6187C220.644 52.7359 220.388 52.8998 220.168 53.111C219.947 53.3218 219.769 53.5727 219.633 53.8632C219.497 54.1537 219.415 54.4727 219.387 54.8193H224.369Z" fill="white"/>
<path d="M230.759 48.9976L234.067 57.3929L237.361 48.9976H238.698L234.616 58.982H233.518L229.422 48.9976H230.759Z" fill="white"/>
<path d="M239.16 53.9194C239.16 53.3198 239.266 52.7219 239.477 52.1265C239.688 51.5314 239.998 50.9968 240.406 50.5234C240.814 50.0501 241.314 49.668 241.905 49.3772C242.496 49.087 243.167 48.9414 243.918 48.9414C244.809 48.9414 245.574 49.1431 246.212 49.546C246.85 49.9494 247.324 50.4743 247.634 51.121L246.634 51.7679C246.484 51.4493 246.304 51.182 246.092 50.9662C245.881 50.7508 245.651 50.5775 245.403 50.4459C245.154 50.315 244.898 50.221 244.636 50.1649C244.373 50.1087 244.115 50.0803 243.862 50.0803C243.308 50.0803 242.817 50.1954 242.39 50.4249C241.963 50.6547 241.605 50.9547 241.314 51.3248C241.023 51.6953 240.805 52.1125 240.659 52.5767C240.514 53.0405 240.441 53.5071 240.441 53.9759C240.441 54.5008 240.528 55.0001 240.702 55.4734C240.875 55.947 241.117 56.3663 241.426 56.7319C241.736 57.0975 242.102 57.3884 242.524 57.6038C242.946 57.8196 243.406 57.9273 243.904 57.9273C244.166 57.9273 244.436 57.8947 244.713 57.8287C244.99 57.7634 245.255 57.6578 245.508 57.5126C245.762 57.3673 245.998 57.1845 246.219 56.9642C246.439 56.7438 246.62 56.4789 246.761 56.1695L247.817 56.746C247.657 57.121 247.434 57.4515 247.148 57.7375C246.862 58.0234 246.538 58.2648 246.177 58.4617C245.816 58.6585 245.433 58.8087 245.03 58.9118C244.626 59.0146 244.232 59.0662 243.847 59.0662C243.162 59.0662 242.533 58.9164 241.961 58.6164C241.389 58.3164 240.894 57.9252 240.476 57.4421C240.059 56.9593 239.735 56.4109 239.505 55.7969C239.275 55.1829 239.16 54.5573 239.16 53.9194Z" fill="white"/>
<path d="M139.306 53.7405C139.011 53.7405 138.721 53.6947 138.436 53.6038C138.151 53.5125 137.905 53.3807 137.699 53.2076L137.966 52.7941C138.181 52.9577 138.396 53.0804 138.612 53.1622C138.827 53.244 139.054 53.2849 139.292 53.2849C139.559 53.2849 139.77 53.2321 139.927 53.1271C140.084 53.0218 140.162 52.8735 140.162 52.6818C140.162 52.593 140.141 52.517 140.099 52.4539C140.057 52.391 139.994 52.3361 139.91 52.2894C139.825 52.2427 139.718 52.2006 139.587 52.163C139.456 52.1258 139.304 52.0858 139.131 52.044C138.911 51.9879 138.721 51.9341 138.562 51.8826C138.403 51.8313 138.272 51.7706 138.169 51.7004C138.067 51.6302 137.992 51.5463 137.945 51.448C137.898 51.3497 137.875 51.2283 137.875 51.0833C137.875 50.9011 137.911 50.7388 137.984 50.5963C138.056 50.4537 138.155 50.3344 138.282 50.2386C138.408 50.1431 138.556 50.0704 138.727 50.0213C138.898 49.9722 139.082 49.9478 139.278 49.9478C139.554 49.9478 139.811 49.9923 140.05 50.0808C140.288 50.1699 140.49 50.2865 140.653 50.4315L140.373 50.8032C140.218 50.6677 140.045 50.5657 139.854 50.498C139.662 50.4302 139.465 50.3964 139.264 50.3964C139.04 50.3964 138.849 50.4443 138.692 50.5401C138.535 50.6359 138.457 50.7891 138.457 50.9994C138.457 51.0833 138.472 51.1535 138.503 51.2097C138.533 51.2658 138.583 51.3146 138.654 51.3568C138.724 51.3989 138.814 51.4364 138.924 51.4691C139.034 51.5017 139.166 51.5368 139.32 51.574C139.563 51.6302 139.775 51.6876 139.955 51.7458C140.135 51.8044 140.285 51.8734 140.404 51.9528C140.524 52.0321 140.612 52.1258 140.671 52.2332C140.729 52.3406 140.759 52.4716 140.759 52.6257C140.759 52.9669 140.628 53.2382 140.366 53.439C140.104 53.6401 139.751 53.7405 139.306 53.7405Z" fill="white"/>
<path d="M143.452 53.488C143.414 53.5066 143.365 53.5289 143.304 53.5545C143.244 53.5801 143.174 53.6061 143.098 53.6317C143.02 53.6573 142.936 53.6784 142.845 53.6946C142.753 53.7111 142.659 53.7193 142.561 53.7193C142.336 53.7193 142.142 53.6573 141.978 53.5334C141.814 53.4095 141.733 53.217 141.733 52.9551V50.4945H141.234V50.0108H141.733V48.791H142.35V50.0108H143.171V50.4945H142.35V52.7659C142.359 52.9014 142.404 52.9997 142.483 53.0601C142.563 53.1212 142.656 53.1514 142.764 53.1514C142.886 53.1514 142.997 53.1315 143.098 53.0919C143.198 53.0522 143.267 53.0208 143.304 52.9973L143.452 53.488Z" fill="white"/>
</g>
<defs>
<clipPath id="clip0_2776_2151">
<rect width="285" height="75" fill="white" transform="translate(0 0.952148)"/>
</clipPath>
</defs>
</svg>
