<?xml version="1.0" standalone="no"?>
<!DOCTYPE svg PUBLIC "-//W3C//DTD SVG 20010904//EN"
 "http://www.w3.org/TR/2001/REC-SVG-20010904/DTD/svg10.dtd">
<svg version="1.0" xmlns="http://www.w3.org/2000/svg"
 width="893.000000pt" height="727.000000pt" viewBox="0 0 893.000000 727.000000"
 preserveAspectRatio="xMidYMid meet">

<g transform="translate(0.000000,727.000000) scale(0.100000,-0.100000)"
fill="#000000" stroke="none">
<path d="M4260 7263 c-408 -39 -702 -122 -1041 -294 -150 -76 -328 -190 -459
-295 -109 -87 -327 -305 -414 -414 -346 -434 -549 -956 -592 -1517 l-7 -93
695 0 694 0 12 93 c53 419 333 810 722 1007 202 102 479 153 705 130 290 -29
532 -133 752 -322 222 -189 395 -503 434 -788 6 -41 13 -85 15 -97 l4 -23 690
0 690 0 0 58 c0 174 -57 474 -136 712 -137 413 -369 779 -691 1091 -449 434
-1015 692 -1643 749 -106 9 -348 11 -430 3z"/>
<path d="M1750 4447 c0 -19 5 -83 11 -143 126 -1274 1113 -2280 2385 -2429 71
-8 150 -15 176 -15 l48 0 0 695 0 695 -36 0 c-108 0 -353 72 -483 141 -254
136 -469 357 -585 603 -64 134 -126 360 -126 456 l0 30 -695 0 -695 0 0 -33z"/>
<path d="M5775 4433 c-39 -255 -96 -415 -208 -585 -204 -314 -543 -537 -892
-588 -44 -6 -90 -13 -102 -16 l-23 -4 0 -690 0 -690 23 0 c64 0 268 24 383 45
1203 222 2114 1243 2200 2468 l7 97 -691 0 -691 0 -6 -37z"/>
<path d="M1565 1139 c-113 -19 -197 -62 -267 -137 -58 -62 -105 -154 -124
-241 -19 -91 -18 -284 2 -374 56 -250 242 -387 524 -387 287 0 472 137 525
389 19 91 19 284 0 373 -43 203 -169 331 -368 372 -81 17 -209 19 -292 5z
m254 -272 c31 -20 50 -44 68 -83 49 -107 48 -318 -2 -420 -60 -122 -222 -151
-326 -57 -53 48 -80 134 -81 258 -1 233 74 341 233 333 52 -3 75 -9 108 -31z"/>
<path d="M0 575 l0 -555 150 0 150 0 0 225 0 225 175 0 175 0 0 -225 0 -225
155 0 155 0 0 555 0 555 -155 0 -155 0 0 -205 0 -205 -175 0 -175 0 0 205 0
205 -150 0 -150 0 0 -555z"/>
<path d="M2440 575 l0 -555 136 0 136 0 -4 394 -3 394 111 -391 111 -392 146
-3 146 -3 20 68 c11 38 61 214 111 393 50 178 92 325 93 326 1 1 0 -175 -1
-392 l-4 -394 141 0 141 0 0 555 0 555 -205 0 -204 0 -10 -37 c-6 -21 -57
-200 -115 -398 l-103 -360 -26 85 c-19 65 -133 451 -203 693 -5 15 -24 17
-210 17 l-204 0 0 -555z"/>
<path d="M3960 575 l0 -555 330 0 330 0 0 120 0 120 -180 0 -180 0 0 105 0
105 165 0 165 0 0 120 0 120 -165 0 -165 0 0 90 0 90 180 0 180 0 0 120 0 120
-330 0 -330 0 0 -555z"/>
<path d="M4874 575 l181 -555 181 0 180 0 178 542 c98 298 180 548 183 555 4
10 -29 13 -166 13 l-170 0 -16 -52 c-58 -203 -156 -579 -171 -658 l-18 -95
-13 74 c-6 40 -52 221 -100 402 l-87 329 -172 0 -171 0 181 -555z"/>
<path d="M5900 575 l0 -555 150 0 150 0 0 555 0 555 -150 0 -150 0 0 -555z"/>
<path d="M6440 575 l0 -555 370 0 370 0 0 120 0 120 -215 0 -215 0 0 435 0
435 -155 0 -155 0 0 -555z"/>
<path d="M7350 575 l0 -555 370 0 370 0 0 120 0 120 -215 0 -215 0 0 435 0
435 -155 0 -155 0 0 -555z"/>
<path d="M8260 575 l0 -555 335 0 335 0 0 120 0 120 -180 0 -180 0 0 105 0
105 165 0 165 0 0 120 0 120 -165 0 -165 0 0 90 0 90 180 0 180 0 0 120 0 120
-335 0 -335 0 0 -555z"/>
</g>
</svg>
